<svg version="1.1" id="Layer_1" xmlns="http://www.w3.org/2000/svg" xmlns:xlink="http://www.w3.org/1999/xlink" x="0px" y="0px" width="100%" viewBox="0 0 512 512" enable-background="new 0 0 512 512" xml:space="preserve">

<path fill="#FDCB71" opacity="1.000000" stroke="none" d="
M249.996078,383.164368 
	C242.502304,383.109558 235.008545,383.009369 227.514755,383.007263 
	C177.696915,382.993164 127.879005,383.047943 78.061302,382.966400 
	C65.615959,382.946014 56.021671,374.040100 56.016373,361.279022 
	C55.987942,292.800354 56.013046,224.321701 56.545101,155.385132 
	C80.871788,154.631348 104.673492,154.049805 128.474197,154.088470 
	C238.256363,154.266815 348.038239,154.617935 457.820251,154.907104 
	C457.880157,156.735428 457.992249,158.563736 457.992493,160.392059 
	C458.001404,227.043228 457.932343,293.694519 458.055939,360.345459 
	C458.081268,373.991730 447.977936,383.030945 435.391266,383.021393 
	C378.571259,382.978271 321.751129,383.011749 264.007690,383.029053 
	C258.721558,383.081757 254.358826,383.123077 249.996078,383.164368 
M308.883392,302.496521 
	C308.884399,306.327240 308.846649,310.158478 308.896057,313.988586 
	C308.960510,318.983246 312.073822,323.067322 315.637970,322.931763 
	C319.685944,322.777802 322.840179,318.889008 322.866272,313.747223 
	C322.923737,302.421814 322.873260,291.095947 322.899597,279.770325 
	C322.903687,278.013916 323.080444,276.257904 323.165192,274.722046 
	C324.037354,274.426849 324.344238,274.233429 324.652130,274.231720 
	C334.310333,274.178131 343.969666,274.215851 353.626740,274.087372 
	C366.167999,273.920502 375.315674,265.035339 375.794220,252.483673 
	C376.009827,246.828873 375.880707,241.159225 375.841370,235.496750 
	C375.740356,220.957932 366.717621,211.952682 352.160370,211.894760 
	C341.001434,211.850357 329.842133,211.869232 318.683044,211.889954 
	C310.856812,211.904480 308.896637,213.824875 308.891510,221.551773 
	C308.873749,248.200424 308.883820,274.849091 308.883392,302.496521 
M169.501373,225.886078 
	C175.498901,225.883606 181.498672,225.982330 187.493271,225.848373 
	C192.814835,225.729492 194.987167,223.552185 195.017822,218.740784 
	C195.048157,213.983047 192.884354,211.937546 187.353653,211.909790 
	C173.859467,211.842041 160.364548,211.848633 146.870255,211.903152 
	C140.850800,211.927475 138.201431,214.388718 138.188889,220.300262 
	C138.122452,251.620743 138.115143,282.941559 138.198334,314.261963 
	C138.214020,320.171875 140.240646,322.094330 145.383728,322.001740 
	C150.163757,321.915619 152.094299,319.807434 152.128006,314.218048 
	C152.197311,302.723114 152.138962,291.227448 152.165268,279.732178 
	C152.169296,277.974182 152.344894,276.216583 152.460220,274.109985 
	C164.500076,274.109985 175.977295,274.161469 187.453705,274.086945 
	C192.710236,274.052795 194.947342,272.034760 195.033936,267.655090 
	C195.135193,262.532623 192.944382,260.278656 187.401260,260.146057 
	C182.239609,260.022522 177.072754,260.114960 171.908188,260.114136 
	C165.482361,260.113098 159.056549,260.113861 152.602570,260.113861 
	C152.602570,248.298431 152.602570,237.266281 152.602570,225.885925 
	C158.200577,225.885925 163.351410,225.885925 169.501373,225.886078 
M222.986389,211.903931 
	C219.395615,212.004379 216.921204,213.674728 216.064957,217.218063 
	C214.928696,221.920105 218.263321,225.733704 223.772583,225.841278 
	C231.048859,225.983368 238.330002,225.876221 246.217834,225.876221 
	C246.217834,228.468842 246.217834,230.417374 246.217850,232.365906 
	C246.218048,258.857666 246.205292,285.349426 246.244705,311.841125 
	C246.247650,313.816681 245.987076,316.233124 246.977478,317.662933 
	C248.441269,319.776184 250.879440,322.532654 252.971466,322.592010 
	C256.336426,322.687469 259.768829,320.787659 260.099304,316.406219 
	C260.224396,314.748016 260.214600,313.077393 260.214996,311.412415 
	C260.221527,284.920654 260.214508,258.428894 260.230652,231.937149 
	C260.231812,230.027115 260.388000,228.117188 260.486572,225.879333 
	C268.304657,225.879333 275.480957,226.227844 282.590698,225.692276 
	C285.114746,225.502121 288.536774,223.758163 289.703766,221.684937 
	C292.605225,216.530350 288.941193,211.926071 282.372253,211.907578 
	C262.878479,211.852676 243.384460,211.889694 222.986389,211.903931 
z" data-index="1" style="opacity: 1;"></path>
<path fill="#FAE09D" opacity="1.000000" stroke="none" d="
M457.893738,154.452545 
	C348.038239,154.617935 238.256363,154.266815 128.474197,154.088470 
	C104.673492,154.049805 80.871788,154.631348 56.625191,154.916565 
	C56.124279,120.591606 56.031044,86.277306 56.043022,51.963055 
	C56.045609,44.562450 64.579033,33.181038 74.960815,32.987892 
	C111.592262,32.966259 147.350113,32.956345 183.107971,32.946430 
	C191.459518,32.966393 195.983902,38.625614 199.907379,44.765442 
	C207.462463,56.588341 214.493393,68.752548 222.252960,80.435661 
	C225.993759,86.067978 232.169022,88.020775 238.908920,88.019150 
	C304.223969,88.003387 369.539856,88.179779 434.853424,87.868431 
	C448.087219,87.805359 458.564423,97.994347 458.102570,111.014336 
	C457.594879,125.325821 457.974304,139.668762 457.893738,154.452545 
z" data-index="2" style="visibility: visible;"></path>
<path fill="#4C5696" opacity="1.000000" stroke="none" d="
M293.026062,464.102966 
	C293.017151,467.428650 293.033997,470.754669 292.993103,474.079956 
	C292.936401,478.689789 290.090698,481.912109 285.393677,481.941345 
	C266.437561,482.059387 247.479767,482.063599 228.523773,481.936218 
	C223.853561,481.904816 221.058472,478.649811 221.006638,473.997070 
	C220.973297,471.004211 220.996124,468.010742 220.998169,464.086823 
	C220.993744,458.408844 220.984909,453.661591 220.976074,448.914337 
	C220.985153,445.601135 220.908600,442.284943 221.023758,438.975433 
	C221.188492,434.242126 223.303833,432.105438 228.090973,432.030060 
	C235.047134,431.920532 242.006226,431.996552 249.898041,432.002686 
	C255.259048,431.998779 259.686066,431.985657 264.113098,431.972534 
	C271.073029,431.981964 278.033203,431.959076 284.992828,432.010620 
	C290.961365,432.054840 292.922485,434.052216 292.994080,440.044983 
	C293.025757,442.696045 293.003540,445.347778 293.003418,448.928619 
	C293.009399,454.606354 293.017731,459.354645 293.026062,464.102966 
z" data-index="3" style="opacity: 1;"></path>
<path fill="#30C3EF" opacity="1.000000" stroke="none" d="
M353.018066,449.163300 
	C357.822205,438.745728 365.364288,432.530273 377.424438,432.983368 
	C391.837494,433.524933 402.557007,446.831818 399.753906,461.383087 
	C397.484711,473.163025 388.706482,479.795013 378.104553,480.822357 
	C369.372345,481.668518 360.540527,477.729126 355.503143,468.988983 
	C354.698120,467.592194 353.980988,466.144745 353.118774,463.935242 
	C353.015533,458.487610 353.016785,453.825470 353.018066,449.163300 
z" data-index="4" style="opacity: 1;"></path>
<path fill="#30C3EF" opacity="1.000000" stroke="none" d="
M161.066803,464.095184 
	C158.130707,470.698730 154.039581,476.185791 147.050110,479.014282 
	C138.473984,482.484863 130.375458,481.344299 123.326309,475.680115 
	C115.809113,469.639801 112.647545,461.716766 114.555092,451.830872 
	C117.909805,434.445038 138.786102,426.543060 153.932983,438.645935 
	C156.864243,440.988098 158.190750,445.338623 160.544037,449.428650 
	C160.909317,454.761475 160.988068,459.428345 161.066803,464.095184 
z" data-index="5" style="opacity: 1;"></path>
<path fill="#696EAF" opacity="1.000000" stroke="none" d="
M161.529648,464.056641 
	C160.988068,459.428345 160.909317,454.761475 160.846191,449.639099 
	C180.589417,449.117004 200.317017,449.050415 220.510345,448.949097 
	C220.984909,453.661591 220.993744,458.408844 220.988251,463.629120 
	C201.313461,464.074127 181.652985,464.046112 161.529648,464.056641 
z" data-index="6"></path>
<path fill="#696EAF" opacity="1.000000" stroke="none" d="
M352.553467,449.097412 
	C353.016785,453.825470 353.015533,458.487610 352.963623,463.617676 
	C333.260803,464.063629 313.608643,464.041687 293.491272,464.061340 
	C293.017731,459.354645 293.009399,454.606354 293.012268,449.385925 
	C312.711975,448.953094 332.400421,448.992310 352.553467,449.097412 
z" data-index="7"></path>
<path fill="#696EAF" opacity="1.000000" stroke="none" d="
M264.067383,431.507690 
	C259.686066,431.985657 255.259048,431.998779 250.359497,431.992249 
	C249.924210,416.007965 249.961426,400.043274 249.997375,383.621490 
	C254.358826,383.123077 258.721558,383.081757 263.544373,383.102295 
	C264.010193,399.123718 264.015930,415.083282 264.067383,431.507690 
z" data-index="8"></path>
<path fill="#FCD888" opacity="1.000000" stroke="none" d="
M182.878784,32.570175 
	C147.350113,32.956345 111.592262,32.966259 75.358521,32.963890 
	C75.565750,32.635971 76.249008,32.043961 76.931961,32.044312 
	C112.171188,32.062412 147.410400,32.130848 182.878784,32.570175 
z" data-index="9" style="visibility: visible;"></path>
<path fill="#696EAF" opacity="1.000000" stroke="none" d="
M308.883362,301.997131 
	C308.883820,274.849091 308.873749,248.200424 308.891510,221.551773 
	C308.896637,213.824875 310.856812,211.904480 318.683044,211.889954 
	C329.842133,211.869232 341.001434,211.850357 352.160370,211.894760 
	C366.717621,211.952682 375.740356,220.957932 375.841370,235.496750 
	C375.880707,241.159225 376.009827,246.828873 375.794220,252.483673 
	C375.315674,265.035339 366.167999,273.920502 353.626740,274.087372 
	C343.969666,274.215851 334.310333,274.178131 324.652130,274.231720 
	C324.344238,274.233429 324.037354,274.426849 323.165192,274.722046 
	C323.080444,276.257904 322.903687,278.013916 322.899597,279.770325 
	C322.873260,291.095947 322.923737,302.421814 322.866272,313.747223 
	C322.840179,318.889008 319.685944,322.777802 315.637970,322.931763 
	C312.073822,323.067322 308.960510,318.983246 308.896057,313.988586 
	C308.846649,310.158478 308.884399,306.327240 308.883362,301.997131 
M351.259949,225.886322 
	C341.992554,225.886322 332.725189,225.886322 323.259796,225.886322 
	C323.259796,237.563400 323.259796,248.595337 323.259796,260.011993 
	C334.069031,260.011993 344.524902,260.215576 354.965729,259.908630 
	C358.968719,259.790955 361.040283,256.958191 361.011292,252.802002 
	C360.969452,246.810257 360.998779,240.818024 360.999939,234.825989 
	C361.001282,227.901947 359.383148,226.259613 351.259949,225.886322 
z" data-index="10"></path>
<path fill="#696EAF" opacity="1.000000" stroke="none" d="
M169.001816,225.886002 
	C163.351410,225.885925 158.200577,225.885925 152.602570,225.885925 
	C152.602570,237.266281 152.602570,248.298431 152.602570,260.113861 
	C159.056549,260.113861 165.482361,260.113098 171.908188,260.114136 
	C177.072754,260.114960 182.239609,260.022522 187.401260,260.146057 
	C192.944382,260.278656 195.135193,262.532623 195.033936,267.655090 
	C194.947342,272.034760 192.710236,274.052795 187.453705,274.086945 
	C175.977295,274.161469 164.500076,274.109985 152.460220,274.109985 
	C152.344894,276.216583 152.169296,277.974182 152.165268,279.732178 
	C152.138962,291.227448 152.197311,302.723114 152.128006,314.218048 
	C152.094299,319.807434 150.163757,321.915619 145.383728,322.001740 
	C140.240646,322.094330 138.214020,320.171875 138.198334,314.261963 
	C138.115143,282.941559 138.122452,251.620743 138.188889,220.300262 
	C138.201431,214.388718 140.850800,211.927475 146.870255,211.903152 
	C160.364548,211.848633 173.859467,211.842041 187.353653,211.909790 
	C192.884354,211.937546 195.048157,213.983047 195.017822,218.740784 
	C194.987167,223.552185 192.814835,225.729492 187.493271,225.848373 
	C181.498672,225.982330 175.498901,225.883606 169.001816,225.886002 
z" data-index="11"></path>
<path fill="#696EAF" opacity="1.000000" stroke="none" d="
M223.438461,211.897339 
	C243.384460,211.889694 262.878479,211.852676 282.372253,211.907578 
	C288.941193,211.926071 292.605225,216.530350 289.703766,221.684937 
	C288.536774,223.758163 285.114746,225.502121 282.590698,225.692276 
	C275.480957,226.227844 268.304657,225.879333 260.486572,225.879333 
	C260.388000,228.117188 260.231812,230.027115 260.230652,231.937149 
	C260.214508,258.428894 260.221527,284.920654 260.214996,311.412415 
	C260.214600,313.077393 260.224396,314.748016 260.099304,316.406219 
	C259.768829,320.787659 256.336426,322.687469 252.971466,322.592010 
	C250.879440,322.532654 248.441269,319.776184 246.977478,317.662933 
	C245.987076,316.233124 246.247650,313.816681 246.244705,311.841125 
	C246.205292,285.349426 246.218048,258.857666 246.217850,232.365906 
	C246.217834,230.417374 246.217834,228.468842 246.217834,225.876221 
	C238.330002,225.876221 231.048859,225.983368 223.772583,225.841278 
	C218.263321,225.733704 214.928696,221.920105 216.064957,217.218063 
	C216.921204,213.674728 219.395615,212.004379 223.438461,211.897339 
z" data-index="12"></path>
<path fill="#FDCB71" opacity="1.000000" stroke="none" d="
M351.723694,225.887054 
	C359.383148,226.259613 361.001282,227.901947 360.999939,234.825989 
	C360.998779,240.818024 360.969452,246.810257 361.011292,252.802002 
	C361.040283,256.958191 358.968719,259.790955 354.965729,259.908630 
	C344.524902,260.215576 334.069031,260.011993 323.259796,260.011993 
	C323.259796,248.595337 323.259796,237.563400 323.259796,225.886322 
	C332.725189,225.886322 341.992554,225.886322 351.723694,225.887054 
z" data-index="13"></path>
</svg>