<svg version="1.1" id="Layer_1" xmlns="http://www.w3.org/2000/svg" xmlns:xlink="http://www.w3.org/1999/xlink" x="0px" y="0px"
	 width="100%" viewBox="0 0 512 496" enable-background="new 0 0 512 496" xml:space="preserve">
<path fill="#CCCCCC" opacity="1.000000" stroke="none" 
	d="
M1.000000,385.000000 
	C1.000000,257.043030 1.000000,129.086044 1.000000,1.064533 
	C171.566269,1.064533 342.132568,1.064533 513.000000,1.064533 
	C513.000000,128.689835 513.000000,256.379913 512.531372,384.534363 
	C499.021057,384.937500 485.979431,384.876282 473.073425,384.511505 
	C479.436829,379.094971 485.537598,373.815338 491.942413,368.934723 
	C495.496552,366.226410 497.291687,363.374481 497.122437,358.643707 
	C496.737610,347.885162 497.044098,337.102966 496.967926,326.331116 
	C496.955658,324.599457 496.419159,322.871521 495.978546,320.818298 
	C493.522430,317.974701 491.212769,315.454651 488.942047,312.471436 
	C488.980988,216.427399 488.980988,120.846512 488.980988,25.388763 
	C333.932831,25.388763 179.555405,25.388763 25.260191,25.388763 
	C25.260191,137.373535 25.260191,248.969055 25.260191,361.000244 
	C27.298065,361.000244 29.095196,361.000244 30.892326,361.000244 
	C71.388756,361.000244 111.885201,361.012909 152.381622,360.992126 
	C163.709930,360.986298 175.038177,360.881866 186.678085,360.910950 
	C195.648392,368.975952 204.307068,376.952667 212.500381,384.963501 
	C141.690018,384.998413 71.345009,384.999207 1.000000,385.000000 
z"/>
<path fill="#FFFFFF" opacity="1.000000" stroke="none" 
	d="
M1.000000,385.468658 
	C71.345009,384.999207 141.690018,384.998413 212.825531,385.080872 
	C226.914993,397.485138 240.172470,409.851379 253.526733,422.112152 
	C263.298279,431.083618 273.197052,439.916534 283.176208,449.123535 
	C287.880096,453.808472 292.392853,458.239319 297.024323,462.542450 
	C309.069580,473.733734 321.166962,484.868958 333.185883,496.270721 
	C333.085480,496.676605 333.042755,496.838287 333.000000,497.000000 
	C222.442444,497.000000 111.884880,497.000000 1.000000,497.000000 
	C1.000000,459.979736 1.000000,422.958527 1.000000,385.468658 
z"/>
<path fill="#FFFFFE" opacity="1.000000" stroke="none" 
	d="
M472.937805,384.815063 
	C485.979431,384.876282 499.021057,384.937500 512.531372,384.999359 
	C513.000000,422.276947 513.000000,459.553864 513.000000,497.000000 
	C453.979218,497.000000 394.958252,497.000000 335.499573,496.655945 
	C343.110962,489.733185 351.154175,483.147186 359.210297,476.577057 
	C389.697784,451.712891 420.159912,426.817474 450.701233,402.019623 
	C457.974762,396.113983 465.518402,390.541016 472.937805,384.815063 
z"/>
<path fill="#74C404" opacity="1.000000" stroke="none" 
	d="
M473.073425,384.511505 
	C465.518402,390.541016 457.974762,396.113983 450.701233,402.019623 
	C420.159912,426.817474 389.697784,451.712891 359.210297,476.577057 
	C351.154175,483.147186 343.110962,489.733185 335.030914,496.655945 
	C334.555542,497.000000 334.111115,497.000000 333.333313,497.000000 
	C333.042755,496.838287 333.085480,496.676605 333.371155,495.930847 
	C333.713409,493.230255 333.812805,491.113739 334.244995,488.985352 
	C335.092316,486.423889 335.982422,483.884338 336.051392,481.322723 
	C336.264618,473.404266 336.232422,465.476196 336.089905,457.555542 
	C336.074371,456.692200 334.722015,455.852966 333.959259,454.742920 
	C333.887878,454.139008 333.846954,453.794708 334.104736,453.243073 
	C338.922241,449.378143 343.434296,445.712219 347.961090,442.064545 
	C365.677277,427.788788 383.479675,413.618622 401.097290,399.222260 
	C425.137482,379.577667 449.031433,359.754089 473.002777,340.025146 
	C480.686157,333.701538 488.416260,327.434662 496.125000,321.141846 
	C496.419159,322.871521 496.955658,324.599457 496.967926,326.331116 
	C497.044098,337.102966 496.737610,347.885162 497.122437,358.643707 
	C497.291687,363.374481 495.496552,366.226410 491.942413,368.934723 
	C485.537598,373.815338 479.436829,379.094971 473.073425,384.511505 
z"/>
<path fill="#353535" opacity="1.000000" stroke="none" 
	d="
M186.366455,360.822693 
	C175.038177,360.881866 163.709930,360.986298 152.381622,360.992126 
	C111.885201,361.012909 71.388756,361.000244 30.892326,361.000244 
	C29.095196,361.000244 27.298065,361.000244 25.260191,361.000244 
	C25.260191,248.969055 25.260191,137.373535 25.260191,25.388763 
	C179.555405,25.388763 333.932831,25.388763 488.980988,25.388763 
	C488.980988,120.846512 488.980988,216.427399 488.621521,312.392029 
	C474.501404,299.978821 460.740753,287.181915 446.733673,274.224060 
	C445.338501,272.871246 444.225189,271.642670 443.035126,270.493561 
	C435.982880,263.683594 428.912781,256.892029 422.102234,249.853119 
	C427.768127,245.391754 433.158020,241.142319 438.597443,236.957275 
	C450.943115,227.458588 450.953156,227.471451 450.964264,211.885727 
	C450.967224,207.738220 451.049927,203.588776 450.951477,199.443665 
	C450.822357,194.005905 450.550049,188.571564 450.281860,182.778839 
	C437.086029,169.963928 423.955109,157.498032 410.804077,145.053375 
	C407.464081,141.892776 404.060120,138.799744 400.730164,135.716949 
	C399.673401,136.392670 399.076172,136.697510 398.567291,137.111038 
	C376.375916,155.143921 354.213257,173.212204 332.000031,191.218094 
	C318.582703,202.094116 305.088318,212.875122 291.394806,223.509018 
	C274.740997,207.904922 258.320923,192.490646 241.757706,176.941971 
	C240.956482,177.523880 240.286072,177.964920 239.665848,178.467850 
	C204.874634,206.679520 170.081238,234.888489 135.336029,263.156708 
	C134.444885,263.881744 134.086792,265.261963 133.316376,266.823608 
	C133.093643,279.632446 133.303360,291.964508 132.834869,304.270752 
	C132.662994,308.785278 134.281357,311.750671 137.313965,314.562439 
	C149.612701,325.965454 161.883957,337.398376 174.115341,348.873566 
	C178.274765,352.775879 182.286972,356.835144 186.366455,360.822693 
M64.992989,79.463562 
	C63.202209,87.352654 66.792336,91.849335 74.141281,93.979034 
	C74.299896,94.025009 74.452026,94.099129 74.600533,94.173401 
	C84.514748,99.132286 94.428268,104.092529 105.018394,109.391151 
	C92.383621,115.561455 80.466637,121.339539 68.605743,127.230553 
	C67.246117,127.905846 65.209343,129.172592 65.167183,130.231964 
	C64.868469,137.739059 65.008247,145.263611 65.008247,153.408905 
	C81.955460,144.362625 98.079727,135.793427 114.162964,127.147903 
	C119.106171,124.490707 125.842186,122.735847 128.287079,118.543884 
	C130.762695,114.299248 128.834244,107.545250 129.055130,101.899010 
	C129.151596,99.433113 128.398819,98.105919 126.110573,96.924706 
	C106.621796,86.864388 87.218323,76.638878 67.776245,66.487839 
	C67.006584,66.085991 66.105751,65.935387 64.992989,65.580673 
	C64.992989,70.171051 64.992989,74.327820 64.992989,79.463562 
M155.523636,145.000336 
	C152.093994,145.000336 148.664337,145.000336 145.302994,145.000336 
	C145.302994,150.648590 145.302994,155.704300 145.302994,160.705231 
	C155.987167,160.705231 166.366104,160.705231 176.696594,160.705231 
	C176.696594,155.350601 176.696594,150.294891 176.696594,145.000336 
	C169.770248,145.000336 163.144348,145.000336 155.523636,145.000336 
z"/>
<path fill="#BFFE03" opacity="1.000000" stroke="none" 
	d="
M446.980103,274.385010 
	C460.740753,287.181915 474.501404,299.978821 488.582581,312.855164 
	C491.212769,315.454651 493.522430,317.974701 495.978546,320.818298 
	C488.416260,327.434662 480.686157,333.701538 473.002777,340.025146 
	C449.031433,359.754089 425.137482,379.577667 401.097290,399.222260 
	C383.479675,413.618622 365.677277,427.788788 347.961090,442.064545 
	C343.434296,445.712219 338.922241,449.378143 333.843903,453.013672 
	C316.959930,437.717529 300.635529,422.443390 284.323486,406.822754 
	C293.661316,398.703613 302.944916,390.879974 312.325562,383.174530 
	C319.672119,377.139893 327.072021,371.165222 334.589203,365.346069 
	C337.159607,363.356293 337.677490,361.608673 335.232056,359.347504 
	C327.737579,352.417847 320.127747,345.609619 312.745239,338.562988 
	C304.667694,330.852905 296.793610,322.929657 288.959351,314.754120 
	C289.481964,313.934723 289.810425,313.379944 290.279602,312.998047 
	C307.473938,299.002991 324.681274,285.023926 342.013458,270.939850 
	C343.946167,272.781921 345.766785,274.560944 347.633911,276.289734 
	C361.718079,289.330292 375.766968,302.410126 389.996063,315.290741 
	C391.006866,316.205750 393.984741,316.428131 394.998932,315.633606 
	C407.247375,306.038025 419.271576,296.157043 431.413147,286.423920 
	C436.530548,282.321625 441.786896,278.392731 446.980103,274.385010 
z"/>
<path fill="#C70203" opacity="1.000000" stroke="none" 
	d="
M186.678085,360.910950 
	C182.286972,356.835144 178.274765,352.775879 174.115341,348.873566 
	C161.883957,337.398376 149.612701,325.965454 137.313965,314.562439 
	C134.281357,311.750671 132.662994,308.785278 132.834869,304.270752 
	C133.303360,291.964508 133.093643,279.632446 133.620117,266.993774 
	C135.027802,267.349335 136.058914,267.924774 136.894958,268.708313 
	C159.215240,289.627350 181.530823,310.551483 203.814117,331.509888 
	C221.009048,347.682526 238.207214,363.852264 255.310196,380.121796 
	C264.684570,389.039337 273.864685,398.161102 283.165009,407.646576 
	C283.144806,421.671997 283.091980,435.241608 283.039124,448.811218 
	C273.197052,439.916534 263.298279,431.083618 253.526733,422.112152 
	C240.172470,409.851379 226.914993,397.485138 213.290894,385.046753 
	C204.307068,376.952667 195.648392,368.975952 186.678085,360.910950 
z"/>
<path fill="#528806" opacity="1.000000" stroke="none" 
	d="
M283.176208,449.123535 
	C283.091980,435.241608 283.144806,421.671997 283.459656,407.645264 
	C283.918152,407.181824 284.114624,407.175537 284.311127,407.169250 
	C300.635529,422.443390 316.959930,437.717529 333.545166,453.221039 
	C333.846954,453.794708 333.887878,454.139008 333.821411,455.058563 
	C333.524231,459.374939 333.131744,463.119080 333.187561,466.856506 
	C333.297852,474.238678 333.656342,481.617188 333.912170,488.997192 
	C333.812805,491.113739 333.713409,493.230255 333.428772,495.686676 
	C321.166962,484.868958 309.069580,473.733734 297.024323,462.542450 
	C292.392853,458.239319 287.880096,453.808472 283.176208,449.123535 
z"/>
<path fill="#73BC10" opacity="1.000000" stroke="none" 
	d="
M334.244995,488.985352 
	C333.656342,481.617188 333.297852,474.238678 333.187561,466.856506 
	C333.131744,463.119080 333.524231,459.374939 333.851868,455.318176 
	C334.722015,455.852966 336.074371,456.692200 336.089905,457.555542 
	C336.232422,465.476196 336.264618,473.404266 336.051392,481.322723 
	C335.982422,483.884338 335.092316,486.423889 334.244995,488.985352 
z"/>
<path fill="#FD5D5B" opacity="1.000000" stroke="none" 
	d="
M284.323486,406.822754 
	C284.114624,407.175537 283.918152,407.181824 283.427002,407.189453 
	C273.864685,398.161102 264.684570,389.039337 255.310196,380.121796 
	C238.207214,363.852264 221.009048,347.682526 203.814117,331.509888 
	C181.530823,310.551483 159.215240,289.627350 136.894958,268.708313 
	C136.058914,267.924774 135.027802,267.349335 133.783859,266.506775 
	C134.086792,265.261963 134.444885,263.881744 135.336029,263.156708 
	C170.081238,234.888489 204.874634,206.679520 239.665848,178.467850 
	C240.286072,177.964920 240.956482,177.523880 241.757706,176.941971 
	C258.320923,192.490646 274.740997,207.904922 291.432220,223.871460 
	C290.174530,225.862518 288.740692,227.421066 287.101959,228.721405 
	C271.720581,240.926361 256.296570,253.077576 240.905579,265.270447 
	C238.419876,267.239655 237.856079,268.798004 240.863998,271.411865 
	C249.823761,279.197754 258.358582,287.470825 267.118469,295.489075 
	C274.312134,302.073700 281.590179,308.566071 288.830841,315.099335 
	C296.793610,322.929657 304.667694,330.852905 312.745239,338.562988 
	C320.127747,345.609619 327.737579,352.417847 335.232056,359.347504 
	C337.677490,361.608673 337.159607,363.356293 334.589203,365.346069 
	C327.072021,371.165222 319.672119,377.139893 312.325562,383.174530 
	C302.944916,390.879974 293.661316,398.703613 284.323486,406.822754 
z"/>
<path fill="#62A0FC" opacity="1.000000" stroke="none" 
	d="
M288.959351,314.754120 
	C281.590179,308.566071 274.312134,302.073700 267.118469,295.489075 
	C258.358582,287.470825 249.823761,279.197754 240.863998,271.411865 
	C237.856079,268.798004 238.419876,267.239655 240.905579,265.270447 
	C256.296570,253.077576 271.720581,240.926361 287.101959,228.721405 
	C288.740692,227.421066 290.174530,225.862518 291.665985,224.061279 
	C305.088318,212.875122 318.582703,202.094116 332.000031,191.218094 
	C354.213257,173.212204 376.375916,155.143921 398.567291,137.111038 
	C399.076172,136.697510 399.673401,136.392670 400.730164,135.716949 
	C404.060120,138.799744 407.464081,141.892776 410.804077,145.053375 
	C423.955109,157.498032 437.086029,169.963928 450.010986,182.986282 
	C432.149902,197.814392 414.502228,212.078125 396.257782,226.824219 
	C405.204437,234.959503 413.526581,242.526901 421.848694,250.094284 
	C428.912781,256.892029 435.982880,263.683594 443.035126,270.493561 
	C444.225189,271.642670 445.338501,272.871246 446.733673,274.224060 
	C441.786896,278.392731 436.530548,282.321625 431.413147,286.423920 
	C419.271576,296.157043 407.247375,306.038025 394.998932,315.633606 
	C393.984741,316.428131 391.006866,316.205750 389.996063,315.290741 
	C375.766968,302.410126 361.718079,289.330292 347.633911,276.289734 
	C345.766785,274.560944 343.946167,272.781921 342.013458,270.939850 
	C324.681274,285.023926 307.473938,299.002991 290.279602,312.998047 
	C289.810425,313.379944 289.481964,313.934723 288.959351,314.754120 
z"/>
<path fill="#FCFCFC" opacity="1.000000" stroke="none" 
	d="
M64.992989,78.974075 
	C64.992989,74.327820 64.992989,70.171051 64.992989,65.580673 
	C66.105751,65.935387 67.006584,66.085991 67.776245,66.487839 
	C87.218323,76.638878 106.621796,86.864388 126.110573,96.924706 
	C128.398819,98.105919 129.151596,99.433113 129.055130,101.899010 
	C128.834244,107.545250 130.762695,114.299248 128.287079,118.543884 
	C125.842186,122.735847 119.106171,124.490707 114.162964,127.147903 
	C98.079727,135.793427 81.955460,144.362625 65.008247,153.408905 
	C65.008247,145.263611 64.868469,137.739059 65.167183,130.231964 
	C65.209343,129.172592 67.246117,127.905846 68.605743,127.230553 
	C80.466637,121.339539 92.383621,115.561455 105.018394,109.391151 
	C94.428268,104.092529 84.514748,99.132286 74.600533,94.173401 
	C74.452026,94.099129 74.299896,94.025009 74.141281,93.979034 
	C66.792336,91.849335 63.202209,87.352654 64.992989,78.974075 
z"/>
<path fill="#0359E5" opacity="1.000000" stroke="none" 
	d="
M422.102234,249.853119 
	C413.526581,242.526901 405.204437,234.959503 396.257782,226.824219 
	C414.502228,212.078125 432.149902,197.814392 450.068451,183.343201 
	C450.550049,188.571564 450.822357,194.005905 450.951477,199.443665 
	C451.049927,203.588776 450.967224,207.738220 450.964264,211.885727 
	C450.953156,227.471451 450.943115,227.458588 438.597443,236.957275 
	C433.158020,241.142319 427.768127,245.391754 422.102234,249.853119 
z"/>
<path fill="#FFFFFF" opacity="1.000000" stroke="none" 
	d="
M156.021042,145.000336 
	C163.144348,145.000336 169.770248,145.000336 176.696594,145.000336 
	C176.696594,150.294891 176.696594,155.350601 176.696594,160.705231 
	C166.366104,160.705231 155.987167,160.705231 145.302994,160.705231 
	C145.302994,155.704300 145.302994,150.648590 145.302994,145.000336 
	C148.664337,145.000336 152.093994,145.000336 156.021042,145.000336 
z"/>
</svg>